<?xml version="1.0" encoding="UTF-8" standalone="no"?>
<!-- Created with Inkscape (http://www.inkscape.org/) -->

<svg
   xmlns:dc="http://purl.org/dc/elements/1.1/"
   xmlns:cc="http://creativecommons.org/ns#"
   xmlns:rdf="http://www.w3.org/1999/02/22-rdf-syntax-ns#"
   xmlns:svg="http://www.w3.org/2000/svg"
   xmlns="http://www.w3.org/2000/svg"
   xmlns:xlink="http://www.w3.org/1999/xlink"
   xmlns:sodipodi="http://sodipodi.sourceforge.net/DTD/sodipodi-0.dtd"
   xmlns:inkscape="http://www.inkscape.org/namespaces/inkscape"
   width="188.77792"
   height="52.763149"
   viewBox="0 0 49.94749 13.960249"
   version="1.1"
   id="svg4604"
   inkscape:version="0.92.4 (5da689c313, 2019-01-14)"
   sodipodi:docname="paylocity.svg">
  <defs
     id="defs4598">
    <linearGradient
       inkscape:collect="always"
       xlink:href="#linear-gradient"
       id="linearGradient4557"
       gradientUnits="userSpaceOnUse"
       x1="81.68"
       y1="66.43"
       x2="2.3299999"
       y2="66.43"
       gradientTransform="matrix(0.13676874,0,0,0.13676874,-352.92444,123.84246)" />
    <linearGradient
       gradientUnits="userSpaceOnUse"
       y2="66.43"
       x2="2.3299999"
       y1="66.43"
       x1="81.68"
       id="linear-gradient">
      <stop
         id="stop4518"
         stop-color="#FF8F1C"
         offset="0" />
      <stop
         id="stop4520"
         stop-color="#ed2024"
         offset="1" />
    </linearGradient>
    <linearGradient
       xlink:href="#linear-gradient"
       gradientTransform="matrix(-0.13676874,0,0,-0.13676874,-227.07532,-80.403873)"
       y2="-1512.87"
       x2="836.09003"
       y1="-1512.87"
       x1="915.44"
       id="linear-gradient-2" />
  </defs>
  <sodipodi:namedview
     id="base"
     pagecolor="#ffffff"
     bordercolor="#666666"
     borderopacity="1.0"
     inkscape:pageopacity="0.0"
     inkscape:pageshadow="2"
     inkscape:zoom="7.6207047"
     inkscape:cx="93.888955"
     inkscape:cy="25.881575"
     inkscape:document-units="mm"
     inkscape:current-layer="layer1"
     showgrid="false"
     fit-margin-top="0"
     fit-margin-left="0"
     fit-margin-right="0"
     fit-margin-bottom="0"
     units="px"
     inkscape:window-width="1920"
     inkscape:window-height="1001"
     inkscape:window-x="-9"
     inkscape:window-y="-9"
     inkscape:window-maximized="1" />
  <metadata
     id="metadata4601">
    <rdf:RDF>
      <cc:Work
         rdf:about="">
        <dc:format>image/svg+xml</dc:format>
        <dc:type
           rdf:resource="http://purl.org/dc/dcmitype/StillImage" />
        <dc:title></dc:title>
      </cc:Work>
    </rdf:RDF>
  </metadata>
  <g
     inkscape:label="Layer 1"
     inkscape:groupmode="layer"
     id="layer1"
     transform="translate(-325.1645,110.01122)">
    <g
       transform="translate(678.22164,-233.72179)"
       id="g4572">
      <path
         style="fill:#898a8d;stroke-width:0.13676874"
         inkscape:connector-curvature="0"
         class="logotag"
         d="m -327.43895,135.28864 v 0.56895 h 0.65649 v 0.25576 h -0.65649 v 0.79463 h -0.28038 v -1.8751 h 1.10783 v 0.25576 z m 0.92866,0.98063 a 0.66879914,0.66879914 0 0 1 1.33623,0 0.66879914,0.66879914 0 0 1 -1.33623,0 z m 1.06953,0 a 0.4021001,0.4021001 0 1 0 -0.40347,0.4103 0.39799703,0.39799703 0 0 0 0.41031,-0.4103 z m 1.42513,-0.61273 -0.0506,0.25303 a 0.44313072,0.44313072 0 0 0 -0.18737,-0.0438 c -0.23114,0 -0.34055,0.24208 -0.34055,0.58537 v 0.45681 h -0.27354 v -1.27058 h 0.27354 v 0.28584 c 0.0657,-0.22293 0.19421,-0.3132 0.35696,-0.3132 a 0.48552903,0.48552903 0 0 1 0.22157,0.0465 z m 2.09803,-0.0191 -0.46501,1.27058 h -0.22567 l -0.32961,-0.91088 -0.31867,0.91088 h -0.2202 l -0.48143,-1.27058 h 0.28858 l 0.305,0.86848 0.30226,-0.86848 h 0.25028 l 0.30363,0.86848 0.30226,-0.86848 z m 1.47027,0 v 1.27058 h -0.27354 v -0.19011 a 0.50604434,0.50604434 0 0 1 -0.43903,0.21746 0.66332839,0.66332839 0 0 1 0,-1.32529 0.50194128,0.50194128 0 0 1 0.44176,0.21473 v -0.18737 z m -0.27354,0.63187 a 0.41030622,0.41030622 0 0 0 -0.41031,-0.41031 0.3911586,0.3911586 0 0 0 -0.39389,0.41031 0.40073241,0.40073241 0 1 0 0.80009,0 z m 1.51403,-0.61273 -0.0465,0.25303 a 0.45270453,0.45270453 0 0 0 -0.18738,-0.0438 c -0.2325,0 -0.34055,0.24208 -0.34055,0.58537 v 0.45681 h -0.27354 v -1.27058 h 0.27354 v 0.28584 c 0.0657,-0.22293 0.19284,-0.3132 0.35697,-0.3132 a 0.48963209,0.48963209 0 0 1 0.21746,0.0465 z m 1.44975,-0.70709 v 1.95853 h -0.2667 v -0.19011 a 0.50330896,0.50330896 0 0 1 -0.43766,0.21746 0.66538169,0.66538169 0 0 1 0.003,-1.33076 0.4992059,0.4992059 0 0 1 0.4404,0.21473 v -0.87532 z m -0.27354,1.31982 a 0.4021001,0.4021001 0 0 0 -0.41031,-0.41031 0.39252628,0.39252628 0 0 0 -0.39526,0.41031 0.40073241,0.40073241 0 1 0 0.8001,0 z m 2.50834,-0.98063 h -0.55802 v 1.61934 h -0.28038 v -1.61934 h -0.55801 v -0.25576 h 1.39641 z m -0.0643,0.98063 a 0.66879914,0.66879914 0 0 1 1.33623,0 0.66879914,0.66879914 0 0 1 -1.33623,0 z m 1.06953,0 a 0.4021001,0.4021001 0 1 0 -0.41031,0.4103 0.39799703,0.39799703 0 0 0 0.4062,-0.4103 z m 1.83543,-0.63187 v 1.08047 c 0,0.59084 -0.27353,0.82061 -0.70025,0.82061 a 0.65375458,0.65375458 0 0 1 -0.58264,-0.35149 l 0.22704,-0.11079 a 0.41030622,0.41030622 0 0 0 0.3556,0.21473 c 0.2667,0 0.43356,-0.15318 0.43356,-0.55528 v -0.0164 a 0.5210889,0.5210889 0 0 1 -0.43903,0.21199 0.66332839,0.66332839 0 0 1 0,-1.32529 0.51288277,0.51288277 0 0 1 0.44176,0.21199 v -0.18053 z m -0.27353,0.63187 a 0.41030622,0.41030622 0 0 0 -0.41031,-0.41031 0.3911586,0.3911586 0 0 0 -0.39389,0.41031 0.40073241,0.40073241 0 1 0 0.80009,0 z m 1.88193,0.11078 h -1.01208 a 0.36106947,0.36106947 0 0 0 0.39526,0.30773 0.41030622,0.41030622 0 0 0 0.3556,-0.17917 l 0.21336,0.10531 a 0.66606376,0.66606376 0 1 1 -0.58948,-1.00935 0.6181947,0.6181947 0 0 1 0.63598,0.65649 c 10e-4,0.041 10e-4,0.0793 10e-4,0.11899 z m -0.27353,-0.21473 a 0.34055416,0.34055416 0 0 0 -0.36654,-0.30773 0.35559872,0.35559872 0 0 0 -0.38159,0.30773 z m 1.20903,-0.30499 h -0.27353 v 1.04765 h -0.27354 v -1.04765 h -0.22841 v -0.22293 h 0.22841 v -0.47596 h 0.27354 v 0.47596 h 0.27353 z m 1.44155,0.32141 v 0.72624 h -0.2667 v -0.7071 a 0.29131742,0.29131742 0 0 0 -0.28859,-0.32277 0.34192185,0.34192185 0 0 0 -0.36654,0.35697 v 0.68384 h -0.2667 v -1.96947 h 0.2667 v 0.88079 a 0.47048447,0.47048447 0 0 1 0.41031,-0.2202 c 0.32277,-0.005 0.51425,0.20926 0.51152,0.5717 z m 1.58925,0.19831 h -1.01209 a 0.35970179,0.35970179 0 0 0 0.39389,0.30773 0.41030622,0.41030622 0 0 0 0.35697,-0.17917 l 0.21199,0.10531 a 0.66469608,0.66469608 0 1 1 -0.58537,-1.00935 0.6181947,0.6181947 0 0 1 0.63734,0.65649 c -0.003,0.041 -0.003,0.0793 -0.003,0.11899 z m -0.26123,-0.21473 a 0.34055416,0.34055416 0 0 0 -0.36791,-0.30773 0.35423104,0.35423104 0 0 0 -0.38022,0.30773 z m 1.41829,-0.50878 -0.0465,0.25303 a 0.45270453,0.45270453 0 0 0 -0.18874,-0.0438 c -0.23114,0 -0.33919,0.24208 -0.33919,0.58537 v 0.45681 h -0.27353 v -1.27058 h 0.27353 v 0.28584 c 0.0643,-0.22293 0.19285,-0.3132 0.3556,-0.3132 a 0.49236746,0.49236746 0 0 1 0.21883,0.0465 z m -0.0109,1.09962 a 0.18874086,0.18874086 0 1 1 0.18737,0.17917 0.18190242,0.18190242 0 0 1 -0.18737,-0.17917 z"
         id="path4528" />
      <path
         style="stroke-width:0.13676874"
         inkscape:connector-curvature="0"
         class="logotype"
         d="m -326.03981,129.796 -0.84933,-2.11034 h -1.43607 l 1.61113,3.59975 -1.00798,2.4974 h 1.3841 l 2.52338,-6.09715 h -1.39367 z m 2.59861,1.97221 h 1.28973 v -6.23802 h -1.29657 z m 3.99228,-4.18786 a 2.1404308,2.1404308 0 0 0 -2.21566,2.06247 v 0.0752 a 2.1390631,2.1390631 0 0 0 2.14727,2.12948 h 0.0697 a 2.1459015,2.1459015 0 0 0 2.21976,-2.06657 v -0.0629 a 2.1472692,2.1472692 0 0 0 -2.15684,-2.13907 h -0.0684 m 0,3.06636 a 0.88762912,0.88762912 0 0 1 -0.90404,-0.86848 v -0.0602 a 0.89309987,0.89309987 0 0 1 0.84797,-0.93687 h 0.0547 a 0.89309987,0.89309987 0 0 1 0.90267,0.8849 v 0.0533 a 0.88489375,0.88489375 0 0 1 -0.8425,0.92729 h -0.0588 m 4.89632,-1.8669 a 0.99294105,0.99294105 0 0 1 0.77959,0.39527 l 0.99841,-0.63188 a 2.1035032,2.1035032 0 0 0 -1.7862,-0.95738 c -1.19126,0 -2.25121,0.83156 -2.25121,2.12812 0,1.29657 1.05995,2.1377 2.25121,2.1377 a 2.1035032,2.1035032 0 0 0 1.7862,-0.95738 l -0.99705,-0.63187 a 0.99430874,0.99430874 0 0 1 -0.77958,0.39526 0.89857062,0.89857062 0 0 1 -0.94507,-0.8507 v -0.0875 a 0.89720293,0.89720293 0 0 1 0.86301,-0.92866 h 0.0834 m 2.90497,-3.22228 a 0.77547876,0.77547876 0 0 0 -0.80831,0.73719 0.78778794,0.78778794 0 0 0 0.80694,0.75359 0.77274338,0.77274338 0 0 0 0.78642,-0.75359 0.76316957,0.76316957 0 0 0 -0.77001,-0.7536 h -0.0178 m -0.65238,6.22435 h 1.29656 v -4.08939 h -1.29656 z m 2.62869,-5.55418 v 1.46479 h -0.74402 v 0.97243 h 0.74402 v 3.11696 h 1.29657 v -3.11696 h 1.06543 l 1.17621,2.62732 -1.00799,2.49603 h 1.38547 l 2.51791,-6.09578 h -1.39367 l -0.83019,2.11034 -0.85207,-2.11034 h -2.06657 v -1.47163 z m -25.90673,1.36769 a 1.6412249,1.6412249 0 0 0 -1.26101,0.54707 v -0.44997 h -1.29657 v 6.09715 h 1.29657 v -2.47962 a 1.6576371,1.6576371 0 0 0 1.26101,0.5334 2.0159712,2.0159712 0 0 0 1.99135,-2.04059 v -0.0875 a 2.021442,2.021442 0 0 0 -1.91476,-2.12538 h -0.0766 m -0.27354,3.05678 a 0.92455668,0.92455668 0 1 1 0.94507,-0.92866 0.94370431,0.94370431 0 0 1 -0.94507,0.92866 m 5.86875,-2.50424 a 1.6549018,1.6549018 0 0 0 -1.27059,-0.54707 2.0146035,2.0146035 0 0 0 -1.98178,2.05153 v 0.0807 a 2.0159712,2.0159712 0 0 0 1.89699,2.12402 h 0.0821 a 1.6549018,1.6549018 0 0 0 1.26921,-0.54708 v 0.47733 h 1.28836 v -4.08939 h -1.28836 z m -0.99021,2.50424 a 0.91908593,0.91908593 0 1 1 0.93413,-0.91635 0.93686587,0.93686587 0 0 1 -0.93823,0.91908"
         id="path4530" />
      <path
         style="fill:url(#linearGradient4557);stroke-width:0.13676874"
         inkscape:connector-curvature="0"
         d="m -352.92444,130.34855 v -0.0109 a 0.06838437,0.06838437 0 0 1 0.0588,-0.0752 h 3.78576 a 0.06017825,0.06017825 0 0 1 0.0547,0.0492 c 0.72487,2.74632 1.41282,3.66267 2.00913,3.66267 0.82882,0 1.47984,-1.778 1.80124,-2.87215 0.0233,-0.0793 0.12446,-0.0479 0.11079,0.0356 -0.68385,4.46003 -2.73538,4.46003 -3.3946,4.46003 -2.06248,-0.003 -3.81175,-2.20334 -4.42584,-5.24918 z m 11.81408,-0.0191 a 0.06428131,0.06428131 0 0 0 -0.0602,-0.067 h -3.37682 a 0.06017825,0.06017825 0 0 0 -0.0561,0.0588 c -0.23524,2.34695 -0.83429,4.05245 -1.86553,5.00026 a 0.07385512,0.07385512 0 0 0 0,0.10531 0.065649,0.065649 0 0 0 0.0219,0.0164 3.0718259,3.0718259 0 0 0 0.91772,0.14498 c 2.07067,0 3.81995,-2.2389 4.42173,-5.25876 z"
         id="path4532" />
      <path
         style="fill:url(#linear-gradient-2);stroke-width:0.13676874"
         inkscape:connector-curvature="0"
         d="m -341.11036,129.08891 a 0.08753199,0.08753199 0 0 0 0,0.01 0.06701668,0.06701668 0 0 1 -0.052,0.078 h -3.78986 a 0.05744287,0.05744287 0 0 1 -0.0547,-0.0479 c -0.72487,-2.74905 -1.41282,-3.6654 -2.00913,-3.6654 -0.82882,0 -1.47984,1.77799 -1.80124,2.87214 -0.0233,0.0793 -0.12446,0.0479 -0.11079,-0.0356 0.68521,-4.45729 2.73811,-4.45729 3.38913,-4.45729 2.06795,0 3.81722,2.20061 4.42857,5.24645 z m -11.81408,0.0178 a 0.06428131,0.06428131 0 0 0 0.0588,0.0684 h 3.37956 a 0.06154593,0.06154593 0 0 0 0.0574,-0.0588 c 0.23524,-2.34695 0.83429,-4.05929 1.86552,-5.00026 a 0.07248743,0.07248743 0 0 0 0,-0.10395 0.065649,0.065649 0 0 0 -0.0219,-0.0164 3.0307953,3.0307953 0 0 0 -0.91635,-0.14634 c -2.07205,0 -3.82132,2.2389 -4.4231,5.25739 z"
         id="path4534" />
    </g>
  </g>
</svg>
