<svg width="101" height="29" viewBox="0 0 101 29" fill="none" xmlns="http://www.w3.org/2000/svg">
<path d="M20.0497 11.2074C20.0497 13.5582 19.6094 15.5717 18.7287 17.2479C17.8551 18.9169 16.6619 20.1953 15.1491 21.0831C13.6435 21.9709 11.9354 22.4148 10.0249 22.4148C8.11435 22.4148 6.4027 21.9709 4.88992 21.0831C3.38423 20.1882 2.19105 18.9063 1.31037 17.2372C0.43679 15.5611 3.8743e-07 13.5511 3.8743e-07 11.2074C3.8743e-07 8.85653 0.43679 6.84659 1.31037 5.17756C2.19105 3.50142 3.38423 2.21946 4.88992 1.33168C6.4027 0.443892 8.11435 -1.19209e-07 10.0249 -1.19209e-07C11.9354 -1.19209e-07 13.6435 0.443892 15.1491 1.33168C16.6619 2.21946 17.8551 3.50142 18.7287 5.17756C19.6094 6.84659 20.0497 8.85653 20.0497 11.2074ZM16.076 11.2074C16.076 9.55256 15.8168 8.15696 15.2983 7.0206C14.7869 5.87713 14.0767 5.01421 13.1676 4.43182C12.2585 3.84233 11.2109 3.54759 10.0249 3.54759C8.83878 3.54759 7.79119 3.84233 6.8821 4.43182C5.97301 5.01421 5.25923 5.87713 4.74077 7.0206C4.2294 8.15696 3.97372 9.55256 3.97372 11.2074C3.97372 12.8622 4.2294 14.2614 4.74077 15.4048C5.25923 16.5412 5.97301 17.4041 6.8821 17.9936C7.79119 18.576 8.83878 18.8672 10.0249 18.8672C11.2109 18.8672 12.2585 18.576 13.1676 17.9936C14.0767 17.4041 14.7869 16.5412 15.2983 15.4048C15.8168 14.2614 16.076 12.8622 16.076 11.2074ZM23.6159 22.1165V5.75284H27.302V8.53338H27.4938C27.8347 7.59588 28.3993 6.86435 29.1877 6.33878C29.976 5.80611 30.9171 5.53977 32.0108 5.53977C33.1188 5.53977 34.0527 5.80966 34.8127 6.34943C35.5797 6.8821 36.1195 7.61009 36.432 8.53338H36.6025C36.9647 7.62429 37.5755 6.89986 38.4348 6.36009C39.3013 5.81321 40.3276 5.53977 41.5137 5.53977C43.0194 5.53977 44.248 6.01563 45.1998 6.96733C46.1515 7.91903 46.6273 9.30753 46.6273 11.1328V22.1165H42.7601V11.7294C42.7601 10.7138 42.4902 9.97159 41.9505 9.50284C41.4107 9.02699 40.7502 8.78906 39.9689 8.78906C39.0385 8.78906 38.3105 9.08026 37.785 9.66264C37.2665 10.2379 37.0073 10.9872 37.0073 11.9105V22.1165H33.2253V11.5696C33.2253 10.7244 32.9696 10.0497 32.4583 9.54546C31.954 9.04119 31.2935 8.78906 30.4767 8.78906C29.9228 8.78906 29.4185 8.93111 28.964 9.2152C28.5094 9.49219 28.1472 9.88636 27.8773 10.3977C27.6074 10.902 27.4725 11.4915 27.4725 12.1662V22.1165H23.6159ZM57.7841 22.4361C56.1435 22.4361 54.7266 22.0952 53.5334 21.4134C52.3473 20.7244 51.4347 19.7514 50.7955 18.4943C50.1563 17.2301 49.8366 15.7422 49.8366 14.0305C49.8366 12.3473 50.1563 10.87 50.7955 9.59872C51.4418 8.32031 52.3438 7.32599 53.5014 6.61577C54.6591 5.89844 56.0192 5.53977 57.5817 5.53977C58.5902 5.53977 59.5419 5.70313 60.4368 6.02983C61.3388 6.34943 62.1342 6.84659 62.8232 7.52131C63.5192 8.19602 64.0661 9.0554 64.4638 10.0994C64.8615 11.1364 65.0604 12.3722 65.0604 13.8068V14.9893H51.6477V12.3899H61.3636C61.3565 11.6513 61.1967 10.9943 60.8842 10.419C60.5717 9.83665 60.1349 9.37855 59.5739 9.04474C59.0199 8.71094 58.3736 8.54403 57.6349 8.54403C56.8466 8.54403 56.1541 8.7358 55.5575 9.11932C54.9609 9.49574 54.4957 9.9929 54.1619 10.6108C53.8352 11.2216 53.6683 11.8928 53.6612 12.6243V14.8935C53.6612 15.8452 53.8352 16.6619 54.1832 17.3438C54.5313 18.0185 55.0178 18.5369 55.6428 18.8991C56.2678 19.2543 56.9993 19.4318 57.8374 19.4318C58.3984 19.4318 58.9063 19.3537 59.3608 19.1974C59.8153 19.0341 60.2095 18.7962 60.5433 18.4837C60.8771 18.1712 61.1293 17.7841 61.2997 17.3224L64.9006 17.7273C64.6733 18.679 64.2401 19.5099 63.6009 20.2202C62.9688 20.9233 62.1591 21.4702 61.1719 21.8608C60.1847 22.2443 59.0554 22.4361 57.7841 22.4361ZM75.4395 28.5938C74.0545 28.5938 72.8649 28.4055 71.8706 28.0291C70.8762 27.6598 70.0772 27.1626 69.4735 26.5376C68.8699 25.9126 68.4508 25.2202 68.2164 24.4602L71.6895 23.6186C71.8457 23.9382 72.073 24.2543 72.3713 24.5668C72.6696 24.8864 73.0708 25.1491 73.5751 25.3551C74.0865 25.5682 74.7292 25.6747 75.5034 25.6747C76.5971 25.6747 77.5027 25.4084 78.22 24.8757C78.9373 24.3501 79.296 23.4837 79.296 22.2763V19.1761H79.1042C78.9054 19.5739 78.6142 19.9822 78.2306 20.4013C77.8542 20.8203 77.3535 21.1719 76.7285 21.456C76.1106 21.7401 75.3329 21.8821 74.3954 21.8821C73.1383 21.8821 71.9984 21.5874 70.9757 20.9979C69.9601 20.4013 69.1504 19.5135 68.5467 18.3345C67.9501 17.1484 67.6518 15.6641 67.6518 13.8814C67.6518 12.0845 67.9501 10.5682 68.5467 9.33239C69.1504 8.08949 69.9636 7.14844 70.9863 6.50923C72.0091 5.86293 73.149 5.53977 74.4061 5.53977C75.3649 5.53977 76.1532 5.70313 76.7711 6.02983C77.3961 6.34943 77.8933 6.73651 78.2626 7.19105C78.6319 7.63849 78.9125 8.06108 79.1042 8.45881H79.3173V5.75284H83.1206V22.3828C83.1206 23.782 82.7868 24.9396 82.1191 25.8558C81.4515 26.772 80.5389 27.4574 79.3812 27.9119C78.2235 28.3665 76.9096 28.5938 75.4395 28.5938ZM75.4714 18.8565C76.2882 18.8565 76.9842 18.6577 77.5595 18.2599C78.1348 17.8622 78.5716 17.2905 78.8699 16.5447C79.1681 15.799 79.3173 14.9041 79.3173 13.8601C79.3173 12.8303 79.1681 11.9283 78.8699 11.1541C78.5787 10.38 78.1454 9.77983 77.5701 9.35369C77.002 8.92045 76.3024 8.70384 75.4714 8.70384C74.612 8.70384 73.8947 8.92756 73.3194 9.375C72.7441 9.82244 72.3109 10.4368 72.0197 11.218C71.7285 11.9922 71.5829 12.8729 71.5829 13.8601C71.5829 14.8615 71.7285 15.7386 72.0197 16.4915C72.318 17.2372 72.7548 17.8196 73.3301 18.2386C73.9125 18.6506 74.6262 18.8565 75.4714 18.8565ZM91.7818 22.4467C90.7449 22.4467 89.8109 22.2621 88.9799 21.8928C88.1561 21.5163 87.5027 20.9624 87.0197 20.2308C86.5439 19.4993 86.3059 18.5973 86.3059 17.5249C86.3059 16.6016 86.4764 15.8381 86.8173 15.2344C87.1582 14.6307 87.6234 14.1477 88.2129 13.7855C88.8024 13.4233 89.4664 13.1499 90.2051 12.9652C90.9508 12.7734 91.7214 12.6349 92.5169 12.5497C93.4757 12.4503 94.2534 12.3615 94.85 12.2834C95.4466 12.1982 95.8798 12.0703 96.1497 11.8999C96.4267 11.7223 96.5652 11.4489 96.5652 11.0795V11.0156C96.5652 10.2131 96.3272 9.59162 95.8514 9.15128C95.3755 8.71094 94.6902 8.49077 93.7953 8.49077C92.8507 8.49077 92.1014 8.69673 91.5474 9.10867C91.0005 9.5206 90.6312 10.0071 90.4395 10.5682L86.8386 10.0568C87.1227 9.0625 87.5914 8.23153 88.2449 7.56392C88.8983 6.8892 89.6973 6.38494 90.6419 6.05114C91.5865 5.71023 92.6305 5.53977 93.774 5.53977C94.5623 5.53977 95.3471 5.6321 96.1284 5.81676C96.9096 6.00142 97.6234 6.30682 98.2697 6.73295C98.916 7.15199 99.4345 7.72372 99.8251 8.44815C100.223 9.17259 100.422 10.0781 100.422 11.1648V22.1165H96.7143V19.8686H96.5865C96.3521 20.3232 96.0218 20.7493 95.5957 21.147C95.1767 21.5376 94.6476 21.8537 94.0083 22.0952C93.3762 22.3295 92.6341 22.4467 91.7818 22.4467ZM92.7832 19.6129C93.5574 19.6129 94.2285 19.4602 94.7967 19.1548C95.3649 18.8423 95.8017 18.4304 96.1071 17.919C96.4196 17.4077 96.5758 16.8501 96.5758 16.2464V14.3182C96.4551 14.4176 96.2491 14.5099 95.9579 14.5952C95.6738 14.6804 95.3542 14.755 94.9991 14.8189C94.644 14.8828 94.2924 14.9396 93.9444 14.9893C93.5964 15.0391 93.2946 15.0817 93.0389 15.1172C92.4636 15.1953 91.9487 15.3232 91.4941 15.5007C91.0396 15.6783 90.6809 15.9268 90.4181 16.2464C90.1554 16.5589 90.024 16.9638 90.024 17.4609C90.024 18.1712 90.2832 18.7074 90.8017 19.0696C91.3201 19.4318 91.9806 19.6129 92.7832 19.6129Z" fill="#141414"/>
</svg>
