<svg width="21" height="21" viewBox="0 0 21 21" fill="none" xmlns="http://www.w3.org/2000/svg">
<g clip-path="url(#clip0_7_726)">
<path d="M15.6419 0H5.35813C2.40006 0 0 2.39812 0 5.35813V14.7035C0 17.6635 2.40006 20.0616 5.35813 20.0616H15.6419C18.6019 20.0616 21 17.6635 21 14.7035V5.35813C21 2.39812 18.6019 0 15.6419 0ZM13.8867 13.6087C9.31831 17.9029 4.21313 19.8917 2.48115 18.0497C0.751103 16.2076 3.05075 11.2337 7.61723 6.9395C12.1856 2.64527 17.2908 0.656491 19.0209 2.49853C20.7528 4.33864 18.4532 9.31252 13.8867 13.6067V13.6087Z" fill="#141414"/>
</g>
<defs>
<clipPath id="clip0_7_726">
<rect width="21" height="20.0616" fill="white"/>
</clipPath>
</defs>
</svg>
