<svg width="9" height="9" viewBox="0 0 9 9" fill="none" xmlns="http://www.w3.org/2000/svg">
<path d="M8.595 0.201667C8.335 -0.0583332 7.915 -0.0583332 7.655 0.201667L4.395 3.455L1.135 0.195C0.875 -0.065 0.455 -0.065 0.195 0.195C-0.065 0.455 -0.065 0.875 0.195 1.135L3.455 4.395L0.195 7.655C-0.065 7.915 -0.065 8.335 0.195 8.595C0.455 8.855 0.875 8.855 1.135 8.595L4.395 5.335L7.655 8.595C7.915 8.855 8.335 8.855 8.595 8.595C8.855 8.335 8.855 7.915 8.595 7.655L5.335 4.395L8.595 1.135C8.84833 0.881667 8.84833 0.455 8.595 0.201667Z" fill="white"/>
</svg>
